<?xml version="1.0" encoding="UTF-8"?>
<svg id="svg2" xmlns="http://www.w3.org/2000/svg" viewBox="0 0 350 240">
  <defs>
    <style>
      .cls-1, .cls-2 {
        fill: none;
      }

      .cls-3 {
        clip-path: url(#clippath);
      }

      .cls-4 {
        fill: #fcfcfc;
      }

      .cls-5 {
        fill: #fff;
      }

      .cls-6 {
        fill: #8b9dd7;
      }

      .cls-7 {
        fill: #a6bde6;
      }

      .cls-8 {
        fill: #080604;
      }

      .cls-9 {
        fill: #363254;
      }

      .cls-10 {
        fill: #7483ca;
      }

      .cls-11 {
        fill: #839ad6;
      }

      .cls-2 {
        stroke: #fff;
        stroke-width: 5.33px;
      }

      .cls-12 {
        fill: url(#Dégradé_sans_nom_10);
      }

      .cls-13 {
        fill: url(#Dégradé_sans_nom_11);
      }

      .cls-14 {
        fill: url(#Dégradé_sans_nom_12);
      }

      .cls-15 {
        clip-path: url(#clippath-1);
      }

      .cls-16 {
        clip-path: url(#clippath-4);
      }

      .cls-17 {
        clip-path: url(#clippath-3);
      }

      .cls-18 {
        clip-path: url(#clippath-2);
      }

      .cls-19 {
        clip-path: url(#clippath-7);
      }

      .cls-20 {
        clip-path: url(#clippath-8);
      }

      .cls-21 {
        clip-path: url(#clippath-6);
      }

      .cls-22 {
        clip-path: url(#clippath-5);
      }

      .cls-23 {
        clip-path: url(#clippath-9);
      }

      .cls-24 {
        clip-path: url(#clippath-10);
      }

      .cls-25 {
        clip-path: url(#clippath-11);
      }

      .cls-26 {
        fill: url(#Dégradé_sans_nom);
      }

      .cls-27 {
        fill: url(#Dégradé_sans_nom_8);
      }

      .cls-28 {
        fill: url(#Dégradé_sans_nom_3);
      }

      .cls-29 {
        fill: url(#Dégradé_sans_nom_2);
      }

      .cls-30 {
        fill: url(#Dégradé_sans_nom_5);
      }

      .cls-31 {
        fill: url(#Dégradé_sans_nom_4);
      }

      .cls-32 {
        fill: url(#Dégradé_sans_nom_7);
      }

      .cls-33 {
        fill: url(#Dégradé_sans_nom_6);
      }

      .cls-34 {
        fill: url(#Dégradé_sans_nom_9);
      }
    </style>
    <clipPath id="clippath">
      <path class="cls-1" d="m48.7,32.94s16.96-18.62,28.71-26.34c3.74-2.46,31.59-16.99,49.46,33.02,9.78,27.38,9.94,47.78-12.29,56.48-13.31,5.21-8.56,14.96-8.56,14.96"/>
    </clipPath>
    <linearGradient id="Dégradé_sans_nom" x1="-777.89" y1="661.9" x2="-776.89" y2="661.9" gradientTransform="translate(33061.74 142532.17) rotate(36.47) scale(143.84 -143.5) skewX(.45)" gradientUnits="userSpaceOnUse">
      <stop offset="0" stop-color="#8c9bd6"/>
      <stop offset="1" stop-color="#505e9b"/>
    </linearGradient>
    <clipPath id="clippath-1">
      <path class="cls-1" d="m276.83,43.72h35.63c2.99,0,5.41,1.97,5.41,4.39h0c0,2.42-2.42,4.38-5.41,4.38h-27.96l-7.66-8.77Z"/>
    </clipPath>
    <linearGradient id="Dégradé_sans_nom_2" x1="-777.94" y1="661.89" x2="-776.94" y2="661.89" gradientTransform="translate(33417.56 143621.65) rotate(36.47) scale(145.03 -144.69) skewX(.45)" gradientUnits="userSpaceOnUse">
      <stop offset="0" stop-color="#808fd0"/>
      <stop offset="1" stop-color="#505e9b"/>
    </linearGradient>
    <clipPath id="clippath-2">
      <path class="cls-1" d="m152.76,130.94v70.59c0,17.41-17.41,23.64-38.89,23.64h0c-21.48,0-38.88-6.24-38.88-23.64v-71.42"/>
    </clipPath>
    <linearGradient id="Dégradé_sans_nom_3" x1="-777.87" y1="661.9" x2="-776.87" y2="661.9" gradientTransform="translate(32861.58 141973.22) rotate(36.47) scale(143.21 -142.87) skewX(.45)" gradientUnits="userSpaceOnUse">
      <stop offset="0" stop-color="#8c9bd6"/>
      <stop offset="1" stop-color="#505e9b"/>
    </linearGradient>
    <clipPath id="clippath-3">
      <path class="cls-1" d="m271.73,131.8v70.59c0,17.41-17.41,23.64-38.89,23.64h0c-21.48,0-38.89-6.24-38.89-23.64v-71.42"/>
    </clipPath>
    <linearGradient id="Dégradé_sans_nom_4" x1="-777.87" y1="661.9" x2="-776.87" y2="661.9" gradientTransform="translate(32904.5 141916.76) rotate(36.47) scale(143.21 -142.87) skewX(.45)" gradientUnits="userSpaceOnUse">
      <stop offset="0" stop-color="#8c9bd6"/>
      <stop offset="1" stop-color="#505e9b"/>
    </linearGradient>
    <clipPath id="clippath-4">
      <path class="cls-1" d="m120.05,34.53c15.15,24.43,13.53,45.06-6.65,55.88-12.08,6.48-5.43,15.02-5.43,15.02"/>
    </clipPath>
    <linearGradient id="Dégradé_sans_nom_5" x1="-777.68" y1="661.93" x2="-776.68" y2="661.93" gradientTransform="translate(31927.33 137739.33) rotate(36.47) scale(139.01 -138.68) skewX(.45)" gradientUnits="userSpaceOnUse">
      <stop offset="0" stop-color="#808fd0"/>
      <stop offset="1" stop-color="#505e9b"/>
    </linearGradient>
    <clipPath id="clippath-5">
      <path class="cls-1" d="m208.52,17.21s-25.15-.29-117.02,2.73C-.37,22.96,3.02,55.63,2.87,102.56v112.87c0,9.55,8.34,13.4,18.63,13.4s18.64-3.85,18.64-13.4c0,0,2.37-32.25,4.42-51.87,4.58-71.27,91.33,11.72,154.39,7.85,57.3-3.52,102.43-23.14,102.43-69.76s-29.57-84.43-92.86-84.43h0Z"/>
    </clipPath>
    <linearGradient id="Dégradé_sans_nom_6" x1="-777.92" y1="661.9" x2="-776.92" y2="661.9" gradientTransform="translate(33209.8 143284.25) rotate(36.47) scale(144.56 -144.22) skewX(.45)" gradientUnits="userSpaceOnUse">
      <stop offset="0" stop-color="#8c9bd6"/>
      <stop offset="1" stop-color="#505e9b"/>
    </linearGradient>
    <clipPath id="clippath-6">
      <path class="cls-1" d="m5.38,105.66c.1,10.6-1.41,103.19,4.49,108.75-1.85-4.1,2.2-93.8,2.15-99.44l-.05-3.3v-4.66c-2.27-.83-4.48-1.86-6.61-3.03l.02,1.67Z"/>
    </clipPath>
    <linearGradient id="Dégradé_sans_nom_7" x1="-778.18" y1="663.99" x2="-777.18" y2="663.99" gradientTransform="translate(-14631.04 137366.97) rotate(55.33) scale(135.3 -135.69) skewX(.44)" gradientUnits="userSpaceOnUse">
      <stop offset="0" stop-color="#fafafd"/>
      <stop offset="1" stop-color="#8892d2"/>
    </linearGradient>
    <clipPath id="clippath-7">
      <path class="cls-1" d="m208.49,20.32s-24.6-.29-114.5,2.67C4.1,25.94,5.48,58.79,5.48,102.96l.02,1.63c2.08,1.17,4.24,2.19,6.45,3.03.02-41.8,1.81-72.47,88.52-75.32,89.89-2.95,114.5-2.67,114.5-2.67,34.38,0,58.04,11.51,72.78,29.47-13.57-23.24-39.25-38.79-79.26-38.79h0Z"/>
    </clipPath>
    <linearGradient id="Dégradé_sans_nom_8" x1="-779" y1="663.57" x2="-778" y2="663.57" gradientTransform="translate(-16785.62 160026.77) rotate(55.33) scale(157.65 -158.11) skewX(.44)" gradientUnits="userSpaceOnUse">
      <stop offset="0" stop-color="#fafafd"/>
      <stop offset="1" stop-color="#8892d2"/>
    </linearGradient>
    <clipPath id="clippath-8">
      <path class="cls-1" d="m177.18,163.33v50.27c0,17.41-17.42,23.66-38.89,23.66h0c-21.48,0-38.89-6.25-38.89-23.66v-76.52"/>
    </clipPath>
    <linearGradient id="Dégradé_sans_nom_9" x1="-777.86" y1="661.9" x2="-776.86" y2="661.9" gradientTransform="translate(32842.29 141902.07) rotate(36.47) scale(143.13 -142.79) skewX(.45)" gradientUnits="userSpaceOnUse">
      <stop offset="0" stop-color="#8c9bd6"/>
      <stop offset="1" stop-color="#505e9b"/>
    </linearGradient>
    <clipPath id="clippath-9">
      <path class="cls-1" d="m296.19,128.78v82.85c0,17.4-17.42,23.65-38.89,23.65h0c-21.48,0-38.88-6.25-38.88-23.65v-47.6"/>
    </clipPath>
    <linearGradient id="Dégradé_sans_nom_10" x1="-777.88" y1="661.9" x2="-776.88" y2="661.9" gradientTransform="translate(33010.91 142328.51) rotate(36.47) scale(143.63 -143.29) skewX(.45)" gradientUnits="userSpaceOnUse">
      <stop offset="0" stop-color="#8c9bd6"/>
      <stop offset="1" stop-color="#505e9b"/>
    </linearGradient>
    <clipPath id="clippath-10">
      <path class="cls-1" d="m75.96,25.75s22.78-15.54,37.17-20.86c4.59-1.7,37.68-10.37,43.04,46.31,2.93,31.03-2.35,52.47-28,56.35-15.35,2.33-12.98,13.68-12.98,13.68"/>
    </clipPath>
    <linearGradient id="Dégradé_sans_nom_11" x1="-777.87" y1="661.9" x2="-776.87" y2="661.9" gradientTransform="translate(32966.15 142100.6) rotate(36.47) scale(143.41 -143.07) skewX(.45)" gradientUnits="userSpaceOnUse">
      <stop offset="0" stop-color="#8c9bd6"/>
      <stop offset="1" stop-color="#505e9b"/>
    </linearGradient>
    <clipPath id="clippath-11">
      <path class="cls-1" d="m99.27,21.64c25.8-16,40.12-7.82,40.12-7.82-11.22-10.17-23.83-6.8-26.62-5.76-14.34,5.33-42.04,25.01-42.04,25.01,0,0-3.74,6.59,3.72,5.16,0,0,16.23-11.25,24.83-16.58h0Z"/>
    </clipPath>
    <linearGradient id="Dégradé_sans_nom_12" x1="-779.11" y1="663.51" x2="-778.11" y2="663.51" gradientTransform="translate(-17142.3 163559.71) rotate(55.33) scale(161.12 -161.59) skewX(.44)" gradientUnits="userSpaceOnUse">
      <stop offset="0" stop-color="#fafafd"/>
      <stop offset="1" stop-color="#8892d2"/>
    </linearGradient>
  </defs>
  <g id="g4577">
    <g id="g14">
      <g class="cls-3">
        <g id="g16">
          <path id="path28" class="cls-26" d="m48.7,32.94s16.96-18.62,28.71-26.34c3.74-2.46,31.59-16.99,49.46,33.02,9.78,27.38,9.94,47.78-12.29,56.48-13.31,5.21-8.56,14.96-8.56,14.96"/>
        </g>
      </g>
    </g>
    <path id="path30" class="cls-9" d="m75.79,4.33c-11.92,7.83-28.56,26.04-29.26,26.8-1.04,1.14-.92,2.89.28,3.88,1.19.99,3.01.88,4.05-.27.17-.19,16.87-18.46,28.18-25.89.34-.23,8.59-5.52,18.64-2.34,10.57,3.35,19.73,15.11,26.47,33.98,10.74,30.06,7.55,45.93-10.65,53.04-5.25,2.06-8.71,5.04-10.28,8.87-2.06,5.05.11,9.61.2,9.81.66,1.37,2.35,1.95,3.78,1.32,1.44-.62,2.07-2.24,1.43-3.62-.01-.03-1.24-2.73-.04-5.57.98-2.34,3.36-4.27,7.07-5.71,27.47-10.75,21.86-37.67,13.91-59.92-7.46-20.86-17.58-33.45-30.1-37.42-12.51-3.97-22.6,2.3-23.71,3.02"/>
    <g id="g32">
      <g class="cls-15">
        <g id="g34">
          <path id="path46" class="cls-29" d="m276.83,43.72h35.63c2.99,0,5.41,1.97,5.41,4.39h0c0,2.42-2.42,4.38-5.41,4.38h-27.96l-7.66-8.77"/>
        </g>
      </g>
    </g>
    <path id="path48" class="cls-9" d="m312.46,46.47c1.5,0,2.54.86,2.54,1.64s-1.04,1.64-2.54,1.64h-26.62c-.57-.65-1.43-1.64-2.86-3.27h29.48Zm-41.77-5.5l12.47,14.27h29.31c4.57,0,8.28-3.2,8.28-7.13s-3.71-7.13-8.28-7.13h-41.77"/>
    <path id="path50" class="cls-6" d="m323.49,33.53c4.9-2.31,10.62-1.75,12.8,1.26,2.17,3.02-.05,7.33-4.94,9.66-4.89,2.31-17.71,5.11-19.88,2.09-2.18-3.01,7.13-10.69,12.02-13"/>
    <path id="path52" class="cls-9" d="m324.75,35.99h0c3.8-1.79,7.97-1.29,9.16.36.33.46.41.99.24,1.63-.31,1.15-1.54,2.8-4.09,4-4.72,2.23-13.11,3.54-15.7,2.91.96-2.13,6.2-6.92,10.39-8.9h0Zm-2.54-4.93h0c-4.1,1.93-12.43,8.09-13.74,12.96l.63,4.06c3.94,5.48,19.81.57,23.52-1.18,3.69-1.75,6.27-4.5,7.1-7.55.59-2.18.21-4.35-1.07-6.13-3-4.16-10.22-5.11-16.44-2.17"/>
    <path id="path54" class="cls-6" d="m332.19,51.32c5.25,1.74,8.18,5.77,6.56,9-1.64,3.24-7.21,4.44-12.45,2.69-5.24-1.74-15.78-8.28-14.15-11.51,1.63-3.24,14.81-1.93,20.05-.19"/>
    <path id="path56" class="cls-9" d="m333.13,48.73h0,0Zm-1.89,5.19h0c2.82.94,4.37,2.5,4.87,3.65.38.88.12,1.4.04,1.57-.86,1.72-4.87,2.63-8.92,1.28-4.63-1.53-10.86-5.85-12.03-7.84,2.17-.72,10.98-.35,16.05,1.33h0Zm-21.7-3.6v3.99c2.03,4.66,11.36,9.84,15.8,11.31,6.68,2.22,13.7.42,15.98-4.09.48-.97.73-2.02.73-3.08,0-1-.21-2.01-.64-3-1.29-2.96-4.31-5.4-8.29-6.72-3.97-1.32-20.58-4.38-23.58,1.59"/>
    <path id="path58" class="cls-6" d="m332.96,41.36c7.79-.05,14.14,2.74,14.17,6.23.04,3.49-6.24,6.36-14.04,6.41-7.78.05-25.41-2.65-25.45-6.14-.04-3.5,17.54-6.44,25.32-6.5"/>
    <path id="path60" class="cls-9" d="m344.25,47.61c0,.13-.12.39-.47.73-1.41,1.37-5.37,2.87-10.71,2.9-6.68.04-17.25-1.75-21.32-3.42,4.04-1.73,14.56-3.67,21.23-3.72h0c7.38-.05,11.27,2.58,11.28,3.5h0Zm-11.31-9h0c-5.66.04-22.47,2.02-26.79,6.21l-1.39,3.07c.08,8.08,28.06,8.86,28.34,8.86,6.27-.04,11.93-1.78,14.77-4.55,1.41-1.37,2.14-2.97,2.12-4.64-.04-5.24-7.22-9.01-17.06-8.95"/>
    <g id="g62">
      <g class="cls-18">
        <g id="g64">
          <path id="path76" class="cls-28" d="m152.76,130.94v70.59c0,17.41-17.41,23.64-38.89,23.64h0c-21.48,0-38.88-6.24-38.88-23.64v-71.42"/>
        </g>
      </g>
    </g>
    <path id="path78" class="cls-9" d="m72.12,130.11v71.42c0,17.02,14.83,26.39,41.76,26.39s41.76-9.37,41.76-26.39v-70.59c0-1.52-1.29-2.75-2.87-2.75s-2.87,1.23-2.87,2.75v70.59c0,17.27-19.58,20.89-36.02,20.89s-36.01-3.62-36.01-20.89v-71.42c0-1.52-1.29-2.75-2.87-2.75s-2.87,1.23-2.87,2.75"/>
    <path id="path80" class="cls-6" d="m92.03,201.45c0,7.04-4.12,12.77-9.19,12.77s-9.2-5.72-9.2-12.77,4.12-22.98,9.2-22.98,9.19,15.93,9.19,22.98"/>
    <path id="path82" class="cls-9" d="m74.6,201.45c0-7.67,4.36-22.07,8.24-22.07s8.24,14.4,8.24,22.07c0,6.54-3.69,11.85-8.24,11.85s-8.24-5.31-8.24-11.85Zm-1.92,0c0,7.54,4.55,13.69,10.15,13.69s10.15-6.14,10.15-13.69c0-6.89-4.04-23.9-10.15-23.9s-10.15,17.01-10.15,23.9"/>
    <path id="path84" class="cls-7" d="m76.12,202.72c0-6.78,4.98-19,8.61-19,.35,0,.69.17,1.02.43-.91-2.15-1.95-3.57-3.05-3.57-3.64,0-6.58,15.35-6.58,22.13"/>
    <path id="path86" class="cls-6" d="m96.37,208.23c0,5.44-3.27,9.85-7.31,9.85s-7.32-4.41-7.32-9.85,3.28-17.75,7.32-17.75,7.31,12.29,7.31,17.75"/>
    <path id="path88" class="cls-9" d="m82.7,208.23c0-5.7,3.44-16.83,6.36-16.83s6.35,11.12,6.35,16.83c0,4.93-2.85,8.94-6.35,8.94s-6.36-4.01-6.36-8.94Zm-1.91,0c0,5.94,3.71,10.77,8.28,10.77s8.27-4.83,8.27-10.77c0-4.65-2.93-18.66-8.27-18.66s-8.28,14.02-8.28,18.66"/>
    <path id="path90" class="cls-7" d="m84.82,204.99c-.37-3.88,3.06-10.31,5.73-10.78.25-.03.51.03.76.13-.78-1.11-1.67-2-2.43-1.65-2.64,1.25-4.44,8.44-4.07,12.3"/>
    <g id="g92">
      <g class="cls-17">
        <g id="g94">
          <path id="path106" class="cls-31" d="m271.73,131.8v70.59c0,17.41-17.41,23.64-38.89,23.64h0c-21.48,0-38.89-6.24-38.89-23.64v-71.42"/>
        </g>
      </g>
    </g>
    <path id="path108" class="cls-9" d="m191.08,130.97v71.42c0,17.02,14.83,26.39,41.76,26.39,12.12,0,21.84-1.9,28.89-5.64,8.42-4.47,12.87-11.64,12.87-20.75v-70.59c0-1.52-1.29-2.75-2.87-2.75s-2.87,1.23-2.87,2.75v70.59c0,7.19-3.24,12.41-9.92,15.95-6.1,3.23-15.13,4.95-26.1,4.95-16.43,0-36.01-3.63-36.01-20.89v-71.42c0-1.52-1.29-2.75-2.88-2.75s-2.87,1.23-2.87,2.75"/>
    <path id="path110" class="cls-10" d="m211,202.31c0,7.04-4.11,12.78-9.19,12.78s-9.2-5.73-9.2-12.78,4.11-22.98,9.2-22.98,9.19,15.93,9.19,22.98"/>
    <path id="path112" class="cls-9" d="m193.57,202.31c0-3.6,1.09-9.3,2.65-13.85,1.73-5.07,3.88-8.22,5.6-8.22,3.87,0,8.24,14.39,8.24,22.06,0,6.54-3.69,11.86-8.24,11.86s-8.24-5.32-8.24-11.86h0Zm.83-14.42c-1.62,4.71-2.74,10.64-2.74,14.42,0,7.55,4.56,13.69,10.16,13.69s10.15-6.14,10.15-13.69c0-6.89-4.04-23.9-10.15-23.9-3.45,0-5.94,5.15-7.42,9.48"/>
    <path id="path114" class="cls-11" d="m195.09,203.59c0-6.79,4.97-19.01,8.61-19.01.35,0,.69.18,1.02.44-.91-2.15-1.95-3.57-3.05-3.57-3.64,0-6.57,15.36-6.57,22.14"/>
    <path id="path116" class="cls-10" d="m215.34,209.09c0,5.45-3.27,9.85-7.31,9.85s-7.31-4.4-7.31-9.85,3.28-17.74,7.31-17.74,7.31,12.29,7.31,17.74"/>
    <path id="path118" class="cls-9" d="m201.67,209.09c0-5.7,3.43-16.83,6.36-16.83s6.35,11.12,6.35,16.83c0,4.93-2.85,8.94-6.35,8.94s-6.36-4.01-6.36-8.94Zm-1.92,0c0,5.94,3.71,10.77,8.27,10.77s8.27-4.83,8.27-10.77c0-4.64-2.94-18.66-8.27-18.66s-8.27,14.01-8.27,18.66"/>
    <path id="path120" class="cls-11" d="m203.79,205.85c-.37-3.87,3.06-10.31,5.73-10.78.25-.03.51.02.76.13-.78-1.11-1.67-2-2.43-1.65-2.65,1.25-4.44,8.44-4.06,12.3"/>
    <g id="g122">
      <g class="cls-16">
        <g id="g124">
          <path id="path136" class="cls-30" d="m120.05,34.53c15.15,24.43,13.53,45.06-6.65,55.88-12.08,6.48-5.43,15.02-5.43,15.02"/>
        </g>
      </g>
    </g>
    <path id="path138" class="cls-8" d="m118.58,32.16c-1.37.78-1.82,2.46-1.01,3.77,8.43,13.59,11.45,25.9,8.73,35.58-1.93,6.89-6.75,12.43-14.31,16.49-4.78,2.56-7.63,5.79-8.47,9.59-1.15,5.17,2.01,9.3,2.14,9.48.94,1.21,2.72,1.46,4,.57,1.27-.89,1.55-2.61.63-3.83-.01-.02-1.77-2.4-1.13-5.11.51-2.17,2.41-4.15,5.65-5.89,8.96-4.81,14.7-11.49,17.05-19.86,3.13-11.15-.1-24.92-9.34-39.82-.81-1.31-2.57-1.74-3.93-.96"/>
    <g id="g140">
      <g class="cls-22">
        <g id="g142">
          <path id="path154" class="cls-33" d="m208.52,17.21s-25.15-.29-117.02,2.73C-.37,22.96,3.02,55.63,2.87,102.56v112.87c0,9.55,8.34,13.4,18.63,13.4s18.64-3.85,18.64-13.4c0,0,2.37-32.25,4.42-51.87,4.58-71.27,91.33,11.72,154.39,7.85,57.3-3.52,102.43-23.14,102.43-69.76s-29.57-84.43-92.86-84.43"/>
        </g>
      </g>
    </g>
    <path id="path156" class="cls-9" d="m5.75,215.43v-112.87s0-4.97,0-4.97c.02-43.41.03-72.08,85.84-74.9,90.69-2.98,116.64-2.73,116.89-2.73h.03c28.89,0,52.44,8.26,68.09,23.89,14.33,14.3,21.9,34.29,21.9,57.8,0,50.32-54.24,64.22-99.74,67.02-23.95,1.47-52.19-10.28-77.12-20.64-27.94-11.61-52.06-21.64-66.91-12.94-7.85,4.6-12.11,13.86-13.04,28.31-2.02,19.33-4.4,51.52-4.42,51.85,0,9.46-9.89,10.84-15.78,10.84s-15.76-1.39-15.76-10.65h0ZM91.4,17.19C.04,20.19.02,52.65,0,97.58v4.97s0,112.88,0,112.88c0,10.11,8.04,16.15,21.51,16.15s21.52-6.04,21.52-16.15c.02-.13,2.39-32.25,4.41-51.6.81-12.63,4.19-20.46,10.31-24.06,12.31-7.21,36.26,2.75,61.62,13.29,25.52,10.61,54.44,22.64,79.77,21.08,67.79-4.17,105.12-29.92,105.12-72.51,0-24.96-8.13-46.26-23.5-61.61-16.76-16.73-41.74-25.58-72.24-25.58h.03c-.25,0-26.27-.26-117.16,2.73"/>
    <g id="g158">
      <g class="cls-21">
        <g id="g160">
          <path id="path172" class="cls-32" d="m5.38,105.66c.1,10.6-1.41,103.19,4.49,108.75-1.85-4.1,2.2-93.8,2.15-99.44l-.05-3.3v-4.66c-2.27-.83-4.48-1.86-6.61-3.03l.02,1.67"/>
        </g>
      </g>
    </g>
    <g id="g174">
      <g class="cls-19">
        <g id="g176">
          <path id="path188" class="cls-27" d="m208.49,20.32s-24.6-.29-114.5,2.67C4.1,25.94,5.48,58.79,5.48,102.96l.02,1.63c2.08,1.17,4.24,2.19,6.45,3.03.02-41.8,1.81-72.47,88.52-75.32,89.89-2.95,114.5-2.67,114.5-2.67,34.38,0,58.04,11.51,72.78,29.47-13.57-23.24-39.25-38.79-79.26-38.79"/>
        </g>
      </g>
    </g>
    <g id="g190">
      <g class="cls-20">
        <g id="g192">
          <path id="path204" class="cls-34" d="m177.18,163.33v50.27c0,17.41-17.42,23.66-38.89,23.66h0c-21.48,0-38.89-6.25-38.89-23.66v-76.52"/>
        </g>
      </g>
    </g>
    <path id="path206" class="cls-9" d="m96.53,137.08v76.52c0,17.03,14.83,26.4,41.76,26.4s41.77-9.38,41.77-26.4v-50.27c0-1.52-1.29-2.75-2.87-2.75s-2.87,1.23-2.87,2.75v50.27c0,17.28-19.59,20.91-36.02,20.91s-36.01-3.63-36.01-20.91v-76.52c0-1.52-1.29-2.75-2.87-2.75s-2.87,1.23-2.87,2.75"/>
    <path id="path208" class="cls-6" d="m123.86,218.47c0,6.55-5.49,11.86-12.27,11.86s-12.27-5.31-12.27-11.86,5.49-21.35,12.27-21.35,12.27,14.8,12.27,21.35"/>
    <path id="path210" class="cls-9" d="m100.28,218.47c0-6.38,5.47-20.44,11.31-20.44s11.31,14.06,11.31,20.44c0,6.04-5.07,10.94-11.31,10.94s-11.31-4.91-11.31-10.94Zm-1.92,0c0,7.04,5.94,12.78,13.23,12.78s13.23-5.73,13.23-12.78c0-6.64-5.58-22.28-13.23-22.28s-13.23,15.63-13.23,22.28"/>
    <path id="path212" class="cls-7" d="m101.41,219.26c0-5.86,6.87-16.4,11.9-16.4.48,0,.94.15,1.41.38-1.27-1.85-2.7-3.09-4.21-3.09-5.03,0-9.09,13.25-9.09,19.1"/>
    <path id="path214" class="cls-6" d="m133.86,219.4c0,8.64-5.69,15.66-12.7,15.66s-12.71-7.03-12.71-15.66,5.69-28.18,12.71-28.18,12.7,19.53,12.7,28.18"/>
    <path id="path216" class="cls-9" d="m109.4,219.4c0-8.52,5.69-27.26,11.76-27.26s11.75,18.74,11.75,27.26-5.27,14.74-11.75,14.74-11.76-6.62-11.76-14.74Zm-1.92,0c0,9.14,6.13,16.58,13.67,16.58s13.66-7.44,13.66-16.58-5.77-29.09-13.66-29.09-13.67,20.41-13.67,29.09"/>
    <path id="path218" class="cls-7" d="m111.87,220.97c0-8.33,6.88-23.29,11.9-23.29.48,0,.95.22,1.41.53-1.26-2.64-2.7-4.38-4.21-4.38-5.03,0-9.09,18.83-9.09,27.14"/>
    <path id="path220" class="cls-6" d="m140.53,224.05c0,6.11-4.09,11.07-9.15,11.07s-9.14-4.96-9.14-11.07,4.09-19.96,9.14-19.96,9.15,13.82,9.15,19.96"/>
    <path id="path222" class="cls-9" d="m123.2,224.05c0-6.62,4.34-19.05,8.19-19.05s8.19,12.42,8.19,19.05c0,5.6-3.67,10.15-8.19,10.15s-8.19-4.55-8.19-10.15Zm-1.92,0c0,6.61,4.54,11.99,10.1,11.99s10.1-5.38,10.1-11.99c0-6.02-4.02-20.88-10.1-20.88s-10.1,14.86-10.1,20.88"/>
    <path id="path224" class="cls-7" d="m126.09,220.4c-.46-4.37,3.82-11.6,7.16-12.13.31-.05.63.02.96.14-.98-1.26-2.09-2.26-3.04-1.86-3.31,1.41-5.55,9.49-5.08,13.84"/>
    <g id="g226">
      <g class="cls-23">
        <g id="g228">
          <path id="path240" class="cls-12" d="m296.19,128.78v82.85c0,17.4-17.42,23.65-38.89,23.65h0c-21.48,0-38.88-6.25-38.88-23.65v-47.6"/>
        </g>
      </g>
    </g>
    <path id="path242" class="cls-9" d="m293.31,128.78v82.85c0,17.28-19.59,20.9-36.02,20.9s-36.01-3.62-36.01-20.9v-47.6c0-1.52-1.29-2.75-2.87-2.75s-2.87,1.23-2.87,2.75v47.6c0,17.03,14.83,26.4,41.76,26.4s41.76-9.38,41.76-26.4v-82.85c0-1.52-1.28-2.75-2.87-2.75s-2.88,1.23-2.88,2.75"/>
    <path id="path244" class="cls-6" d="m242.88,216.51c0,6.54-5.49,11.85-12.27,11.85s-12.27-5.31-12.27-11.85,5.49-21.36,12.27-21.36,12.27,14.8,12.27,21.36"/>
    <path id="path246" class="cls-9" d="m219.29,216.51c0-6.39,5.47-20.44,11.31-20.44s11.32,14.05,11.32,20.44c0,6.03-5.08,10.94-11.32,10.94s-11.31-4.91-11.31-10.94Zm-1.92,0c0,7.04,5.93,12.77,13.23,12.77s13.23-5.73,13.23-12.77c0-6.64-5.59-22.27-13.23-22.27s-13.23,15.63-13.23,22.27"/>
    <path id="path248" class="cls-7" d="m220.43,217.28c0-5.86,6.87-16.39,11.9-16.39.48,0,.94.15,1.41.38-1.26-1.85-2.69-3.08-4.21-3.08-5.03,0-9.09,13.25-9.09,19.1"/>
    <path id="path250" class="cls-6" d="m252.87,217.43c0,8.64-5.69,15.67-12.71,15.67s-12.71-7.03-12.71-15.67,5.69-28.17,12.71-28.17,12.71,19.52,12.71,28.17"/>
    <path id="path252" class="cls-9" d="m228.41,217.43c0-8.52,5.68-27.26,11.76-27.26s11.75,18.74,11.75,27.26-5.27,14.75-11.75,14.75-11.76-6.62-11.76-14.75Zm-1.92,0c0,9.14,6.13,16.58,13.67,16.58s13.67-7.44,13.67-16.58-5.77-29.09-13.67-29.09-13.67,20.42-13.67,29.09"/>
    <path id="path254" class="cls-7" d="m230.88,219c0-8.33,6.88-23.29,11.9-23.29.48,0,.95.21,1.41.53-1.26-2.64-2.69-4.38-4.21-4.38-5.03,0-9.09,18.82-9.09,27.14"/>
    <path id="path256" class="cls-6" d="m259.54,222.08c0,6.12-4.09,11.07-9.14,11.07s-9.14-4.96-9.14-11.07,4.09-19.96,9.14-19.96,9.14,13.82,9.14,19.96"/>
    <path id="path258" class="cls-9" d="m242.21,222.08c0-6.62,4.34-19.04,8.19-19.04s8.19,12.42,8.19,19.04c0,5.6-3.68,10.15-8.19,10.15s-8.19-4.55-8.19-10.15h0Zm-1.92,0c0,6.61,4.53,11.99,10.1,11.99s10.1-5.37,10.1-11.99c0-6.02-4.02-20.88-10.1-20.88s-10.1,14.86-10.1,20.88"/>
    <path id="path260" class="cls-7" d="m245.1,218.43c-.46-4.37,3.82-11.6,7.16-12.13.31-.05.63.02.96.14-.98-1.26-2.09-2.25-3.04-1.86-3.31,1.41-5.54,9.49-5.08,13.85"/>
    <path id="path262" class="cls-9" d="m27.24,56.53c-1.01,1.37-.66,3.25.81,4.2,1.46.96,3.47.61,4.48-.75,5.78-7.79,18.78-9.93,24.95-7.72,1.23.44,2.79.25,3.47-.44.68-.68.24-1.59-1-2.04-8.46-3.03-25.06-3.58-32.71,6.74"/>
    <path id="path264" class="cls-9" d="m52.28,90.76c-5.34,1.12-10.04-1.85-10.5-6.61-.46-4.77,3.49-9.54,8.83-10.67,5.34-1.12,10.05,1.83,10.51,6.61.46,4.77-3.5,9.54-8.84,10.67Zm11.03-11.31c-.53-5.56-6.09-8.98-12.42-7.66-6.32,1.33-11.02,6.9-10.49,12.45.53,5.55,6.09,8.98,12.42,7.67,6.33-1.33,11.03-6.9,10.5-12.46"/>
    <path id="path266" class="cls-4" d="m60.78,80.47c.41,4.2-3.05,8.4-7.73,9.38-4.69.99-8.81-1.62-9.22-5.82-.4-4.2,3.06-8.39,7.73-9.38,4.69-.99,8.81,1.61,9.22,5.81"/>
    <path id="path268" class="cls-9" d="m60.1,80.51c-1.27-3.2-4.63-5.05-7.48-4.16-1.53.47-2.57,1.64-3.06,3.1l3.98,1.96-3.66,2.62c1.36,3.02,4.56,4.75,7.33,3.89,2.86-.9,4.15-4.21,2.88-7.41"/>
    <path id="path270" class="cls-5" d="m57.17,79.14c.71-.1,1.54.75,1.85,1.93.31,1.17-.02,2.21-.75,2.32-.72.11-1.55-.75-1.86-1.93-.3-1.17.04-2.2.76-2.32"/>
    <path id="path272" class="cls-9" d="m45.58,74.33c-5,3.82-6.57,9.38-3.2,12.52-.29-.12.34.69.07.53-5.31-2.92-6.2-11.6-1.31-16.7,4.2-4.39,16.8-7.64,16.71-5.95-.52,1.94-4.21,4.4-8.79,7.08-1.47.83-2.54,1.79-3.48,2.51"/>
    <path id="path274" class="cls-9" d="m127.65,128.21c-.26,1.3.63,2.37,1.97,2.37h7.7c1.34,0,2.64-1.07,2.9-2.37l2.05-10.48c.26-1.3,1.56-2.37,2.9-2.37h8.33c4.75,0,8.66-.5,11.72-1.49,3.07-.99,5.85-2.65,8.37-4.98,2.1-1.92,3.81-4.04,5.11-6.36,1.3-2.31,2.23-4.87,2.78-7.66,1.33-6.78.02-11.83-3-15.86-3.8-5.05-13.5-5.31-13.5-5.31-1.33-.2-3.5-.37-4.84-.37h-19.3c-1.34,0-2.64,1.07-2.9,2.38l-10.28,52.49Zm30.15-45.84c4.78,0,7.96.88,9.55,2.62,1.59,1.75,1.97,4.75,1.14,9-.87,4.43-2.55,7.6-5.02,9.49-2.48,1.89-8.9,2.58-8.9,2.58-1.33.14-3.52.26-4.86.26h-2.77c-1.34,0-2.23-1.07-1.97-2.37l3.76-19.21c.26-1.3,1.56-2.37,2.9-2.37h6.17"/>
    <path id="path276" class="cls-2" d="m127.65,128.21c-.26,1.3.63,2.37,1.97,2.37h7.7c1.34,0,2.64-1.07,2.9-2.37l2.05-10.48c.26-1.3,1.56-2.37,2.9-2.37h8.33c4.75,0,8.66-.5,11.72-1.49,3.07-.99,5.85-2.65,8.37-4.98,2.1-1.92,3.81-4.04,5.11-6.36,1.3-2.31,2.23-4.87,2.78-7.66,1.33-6.78.02-11.83-3-15.86-3.8-5.05-13.5-5.31-13.5-5.31-1.33-.2-3.5-.37-4.84-.37h-19.3c-1.34,0-2.64,1.07-2.9,2.38l-10.28,52.49Zm30.15-45.84c4.78,0,7.96.88,9.55,2.62,1.59,1.75,1.97,4.75,1.14,9-.87,4.43-2.55,7.6-5.02,9.49-2.48,1.89-8.9,2.58-8.9,2.58-1.33.14-3.52.26-4.86.26h-2.77c-1.34,0-2.23-1.07-1.97-2.37l3.76-19.21c.26-1.3,1.56-2.37,2.9-2.37h6.17Z"/>
    <path id="path278" class="cls-9" d="m193.6,60.5c.26-1.3,1.56-2.37,2.9-2.37h7.6c1.34,0,2.23,1.07,1.97,2.37l-2.05,10.48c-.26,1.31.64,2.37,1.97,2.37h6.23c1.34,0,3.53.11,4.86.25,0,0,9.09.11,12.04,3.38,2.4,2.67,3.45,6.34,2.39,11.76l-4.75,24.27c-.25,1.3-1.56,2.37-2.9,2.37h-7.79c-1.34,0-2.23-1.07-1.97-2.37l4.04-20.59c.26-1.3.54-3.45.64-4.78,0,0,.18-2.44-.8-3.48-.98-1.05-3.07-1.57-6.26-1.57h-7.53c-1.34,0-2.64,1.06-2.9,2.37l-5.49,28.05c-.26,1.3-1.56,2.37-2.9,2.37h-7.6c-1.34,0-2.23-1.07-1.97-2.37l10.29-52.5"/>
    <path id="path280" class="cls-2" d="m193.6,60.5c.26-1.3,1.56-2.37,2.9-2.37h7.6c1.34,0,2.23,1.07,1.97,2.37l-2.05,10.48c-.26,1.31.64,2.37,1.97,2.37h6.23c1.34,0,3.53.11,4.86.25,0,0,9.09.11,12.04,3.38,2.4,2.67,3.45,6.34,2.39,11.76l-4.75,24.27c-.25,1.3-1.56,2.37-2.9,2.37h-7.79c-1.34,0-2.23-1.07-1.97-2.37l4.04-20.59c.26-1.3.54-3.45.64-4.78,0,0,.18-2.44-.8-3.48-.98-1.05-3.07-1.57-6.26-1.57h-7.53c-1.34,0-2.64,1.06-2.9,2.37l-5.49,28.05c-.26,1.3-1.56,2.37-2.9,2.37h-7.6c-1.34,0-2.23-1.07-1.97-2.37l10.29-52.5Z"/>
    <path id="path282" class="cls-9" d="m232.14,128.21c-.26,1.3.63,2.37,1.97,2.37h7.69c1.34,0,2.65-1.07,2.9-2.37l2.05-10.48c.26-1.3,1.56-2.37,2.9-2.37h8.33c4.75,0,8.65-.5,11.73-1.49,3.06-.99,5.85-2.65,8.36-4.98,2.11-1.92,3.81-4.04,5.11-6.36,1.3-2.31,2.23-4.87,2.78-7.66,1.33-6.78.13-11.91-3.01-15.86-3.89-4.91-13.5-5.31-13.5-5.31-1.33-.2-3.51-.37-4.84-.37h-19.3c-1.34,0-2.64,1.07-2.9,2.38l-10.28,52.49Zm30.16-45.84c4.77,0,7.95.88,9.55,2.62,1.58,1.75,1.96,4.75,1.13,9-.87,4.43-2.54,7.6-5.02,9.49-2.48,1.89-8.9,2.58-8.9,2.58-1.33.14-3.51.26-4.86.26h-2.77c-1.34,0-2.22-1.07-1.97-2.37l3.76-19.21c.26-1.3,1.56-2.37,2.9-2.37h6.18"/>
    <path id="path284" class="cls-2" d="m232.14,128.21c-.26,1.3.63,2.37,1.97,2.37h7.69c1.34,0,2.65-1.07,2.9-2.37l2.05-10.48c.26-1.3,1.56-2.37,2.9-2.37h8.33c4.75,0,8.65-.5,11.73-1.49,3.06-.99,5.85-2.65,8.36-4.98,2.11-1.92,3.81-4.04,5.11-6.36,1.3-2.31,2.23-4.87,2.78-7.66,1.33-6.78.13-11.91-3.01-15.86-3.89-4.91-13.5-5.31-13.5-5.31-1.33-.2-3.51-.37-4.84-.37h-19.3c-1.34,0-2.64,1.07-2.9,2.38l-10.28,52.49Zm30.16-45.84c4.77,0,7.95.88,9.55,2.62,1.58,1.75,1.96,4.75,1.13,9-.87,4.43-2.54,7.6-5.02,9.49-2.48,1.89-8.9,2.58-8.9,2.58-1.33.14-3.51.26-4.86.26h-2.77c-1.34,0-2.22-1.07-1.97-2.37l3.76-19.21c.26-1.3,1.56-2.37,2.9-2.37h6.18Z"/>
    <path id="path286" class="cls-9" d="m127.65,128.21c-.26,1.3.63,2.37,1.97,2.37h7.7c1.34,0,2.64-1.07,2.9-2.37l2.05-10.48c.26-1.3,1.56-2.37,2.9-2.37h8.33c4.75,0,8.66-.5,11.72-1.49,3.07-.99,5.85-2.65,8.37-4.98,2.1-1.92,3.81-4.04,5.11-6.36,1.3-2.31,2.23-4.87,2.78-7.66,1.33-6.78.02-11.83-3-15.86-3.8-5.05-13.5-5.31-13.5-5.31-1.33-.2-3.5-.37-4.84-.37h-19.3c-1.34,0-2.64,1.07-2.9,2.38l-10.28,52.49Zm30.15-45.84c4.78,0,7.96.88,9.55,2.62,1.59,1.75,1.97,4.75,1.14,9-.87,4.43-2.55,7.6-5.02,9.49-2.48,1.89-8.9,2.58-8.9,2.58-1.33.14-3.52.26-4.86.26h-2.77c-1.34,0-2.23-1.07-1.97-2.37l3.76-19.21c.26-1.3,1.56-2.37,2.9-2.37h6.17"/>
    <path id="path288" class="cls-9" d="m193.6,60.5c.26-1.3,1.56-2.37,2.9-2.37h7.6c1.34,0,2.23,1.07,1.97,2.37l-2.05,10.48c-.26,1.31.64,2.37,1.97,2.37h6.23c1.34,0,3.53.11,4.86.25,0,0,9.09.11,12.04,3.38,2.4,2.67,3.45,6.34,2.39,11.76l-4.75,24.27c-.25,1.3-1.56,2.37-2.9,2.37h-7.79c-1.34,0-2.23-1.07-1.97-2.37l4.04-20.59c.26-1.3.54-3.45.64-4.78,0,0,.18-2.44-.8-3.48-.98-1.05-3.07-1.57-6.26-1.57h-7.53c-1.34,0-2.64,1.06-2.9,2.37l-5.49,28.05c-.26,1.3-1.56,2.37-2.9,2.37h-7.6c-1.34,0-2.23-1.07-1.97-2.37l10.29-52.5"/>
    <path id="path290" class="cls-9" d="m232.14,128.21c-.26,1.3.63,2.37,1.97,2.37h7.69c1.34,0,2.65-1.07,2.9-2.37l2.05-10.48c.26-1.3,1.56-2.37,2.9-2.37h8.33c4.75,0,8.65-.5,11.73-1.49,3.06-.99,5.85-2.65,8.36-4.98,2.11-1.92,3.81-4.04,5.11-6.36,1.3-2.31,2.23-4.87,2.78-7.66,1.33-6.78.13-11.91-3.01-15.86-3.89-4.91-13.5-5.31-13.5-5.31-1.33-.2-3.51-.37-4.84-.37h-19.3c-1.34,0-2.64,1.07-2.9,2.38l-10.28,52.49Zm30.16-45.84c4.77,0,7.95.88,9.55,2.62,1.58,1.75,1.96,4.75,1.13,9-.87,4.43-2.54,7.6-5.02,9.49-2.48,1.89-8.9,2.58-8.9,2.58-1.33.14-3.51.26-4.86.26h-2.77c-1.34,0-2.22-1.07-1.97-2.37l3.76-19.21c.26-1.3,1.56-2.37,2.9-2.37h6.18"/>
    <g id="g292">
      <g class="cls-24">
        <g id="g294">
          <path id="path306" class="cls-13" d="m75.96,25.75s22.78-15.54,37.17-20.86c4.59-1.7,37.68-10.37,43.04,46.31,2.93,31.03-2.35,52.47-28,56.35-15.35,2.33-12.98,13.68-12.98,13.68"/>
        </g>
      </g>
    </g>
    <path id="path308" class="cls-9" d="m112.09,2.32c-14.56,5.39-36.86,20.54-37.8,21.19-1.29.88-1.59,2.6-.67,3.83.92,1.24,2.72,1.52,4.01.64.22-.15,22.66-15.39,36.54-20.53.43-.16,10.65-3.83,20.45,2,10.21,6.07,16.67,20.59,18.7,41.99,3.23,34.22-4.42,50.18-25.59,53.39-6,.91-10.37,3.19-12.99,6.8-3.44,4.72-2.4,9.92-2.35,10.14.31,1.48,1.81,2.43,3.36,2.15,1.55-.28,2.57-1.72,2.28-3.21,0-.03-.58-3.23,1.47-5.99,1.7-2.29,4.77-3.79,9.13-4.45,31.48-4.76,32.79-34.2,30.42-59.31-2.23-23.53-9.43-39.06-21.39-46.17-12.01-7.13-24.21-2.96-25.56-2.46"/>
    <g id="g310">
      <g class="cls-25">
        <g id="g312">
          <path id="path324" class="cls-14" d="m99.27,21.64c25.8-16,40.12-7.82,40.12-7.82-11.22-10.17-23.83-6.8-26.62-5.76-14.34,5.33-42.04,25.01-42.04,25.01,0,0-3.74,6.59,3.72,5.16,0,0,16.23-11.25,24.83-16.58"/>
        </g>
      </g>
    </g>
    <path id="path326" class="cls-9" d="m89.96,97.14c-.22,12.99-4.56,24.82-11.32,30.85-3.07,2.74-6.49,4.1-9.91,3.93-1.05-.06-1.95.72-2.01,1.73-.05,1.01.76,1.87,1.82,1.93,4.48.22,8.87-1.47,12.72-4.91,7.5-6.69,12.3-19.52,12.54-33.48.02-1.01-.82-1.84-1.88-1.86-1.06-.01-1.93.79-1.95,1.8"/>
    <path id="path328" class="cls-9" d="m98.25,87.86c-1.44,3.28-3.96,5.37-6.92,5.72-2.89.34-5.82-1-7.84-3.58-.63-.81-1.84-.97-2.68-.36-.85.61-1.02,1.75-.38,2.56,2.86,3.65,7.12,5.53,11.38,5.03,4.36-.52,8-3.42,9.99-7.94.41-.93-.05-2-1.03-2.4-.98-.39-2.1.05-2.51.98"/>
  </g>
</svg>